<mxfile host="app.diagrams.net" modified="2023-06-30T19:33:51.808Z" agent="Mozilla/5.0 (Windows NT 10.0; Win64; x64) AppleWebKit/537.36 (KHTML, like Gecko) Chrome/114.0.0.0 Safari/537.36" etag="GiGeKyg45YykUMtFPEwJ" version="21.5.2" type="github">
  <diagram name="Page-1" id="gxGIFQiL_PZlb9vjrVBf">
    <mxGraphModel dx="1434" dy="764" grid="1" gridSize="10" guides="1" tooltips="1" connect="1" arrows="1" fold="1" page="1" pageScale="1" pageWidth="850" pageHeight="1100" math="0" shadow="0">
      <root>
        <mxCell id="0" />
        <mxCell id="1" parent="0" />
        <mxCell id="aucH0sEV3ZnoKiviGF6L-1" style="edgeStyle=orthogonalEdgeStyle;rounded=0;orthogonalLoop=1;jettySize=auto;html=1;exitX=0;exitY=0;exitDx=0;exitDy=32;exitPerimeter=0;entryX=0;entryY=0;entryDx=0;entryDy=23;entryPerimeter=0;strokeWidth=2;" edge="1" parent="1" source="aucH0sEV3ZnoKiviGF6L-2" target="aucH0sEV3ZnoKiviGF6L-3">
          <mxGeometry relative="1" as="geometry" />
        </mxCell>
        <mxCell id="aucH0sEV3ZnoKiviGF6L-2" value="cadastro" style="shape=folder;fontStyle=1;spacingTop=10;tabWidth=40;tabHeight=14;tabPosition=left;html=1;whiteSpace=wrap;" vertex="1" parent="1">
          <mxGeometry x="88" y="192" width="192" height="160" as="geometry" />
        </mxCell>
        <mxCell id="aucH0sEV3ZnoKiviGF6L-3" value="visitante" style="shape=folder;fontStyle=1;spacingTop=10;tabWidth=40;tabHeight=14;tabPosition=left;html=1;whiteSpace=wrap;" vertex="1" parent="1">
          <mxGeometry x="80" y="64" width="208" height="80" as="geometry" />
        </mxCell>
        <mxCell id="aucH0sEV3ZnoKiviGF6L-4" style="edgeStyle=orthogonalEdgeStyle;rounded=0;orthogonalLoop=1;jettySize=auto;html=1;exitX=0;exitY=0;exitDx=0;exitDy=72;exitPerimeter=0;entryX=0;entryY=0;entryDx=192;entryDy=87;entryPerimeter=0;strokeWidth=2;dashed=1;" edge="1" parent="1" source="aucH0sEV3ZnoKiviGF6L-6" target="aucH0sEV3ZnoKiviGF6L-2">
          <mxGeometry relative="1" as="geometry" />
        </mxCell>
        <mxCell id="aucH0sEV3ZnoKiviGF6L-5" style="edgeStyle=orthogonalEdgeStyle;rounded=0;orthogonalLoop=1;jettySize=auto;html=1;exitX=0;exitY=0;exitDx=0;exitDy=43;exitPerimeter=0;entryX=0;entryY=0;entryDx=208;entryDy=63.5;entryPerimeter=0;dashed=1;strokeWidth=2;" edge="1" parent="1" source="aucH0sEV3ZnoKiviGF6L-6" target="aucH0sEV3ZnoKiviGF6L-3">
          <mxGeometry relative="1" as="geometry" />
        </mxCell>
        <mxCell id="aucH0sEV3ZnoKiviGF6L-6" value="login" style="shape=folder;fontStyle=1;spacingTop=10;tabWidth=40;tabHeight=14;tabPosition=left;html=1;whiteSpace=wrap;" vertex="1" parent="1">
          <mxGeometry x="432" y="207" width="128" height="130" as="geometry" />
        </mxCell>
        <mxCell id="aucH0sEV3ZnoKiviGF6L-7" style="edgeStyle=orthogonalEdgeStyle;rounded=0;orthogonalLoop=1;jettySize=auto;html=1;exitX=0;exitY=0;exitDx=0;exitDy=23;exitPerimeter=0;entryX=1.014;entryY=0.475;entryDx=0;entryDy=0;entryPerimeter=0;" edge="1" parent="1" source="aucH0sEV3ZnoKiviGF6L-8" target="aucH0sEV3ZnoKiviGF6L-3">
          <mxGeometry relative="1" as="geometry" />
        </mxCell>
        <mxCell id="aucH0sEV3ZnoKiviGF6L-8" value="ações" style="shape=folder;fontStyle=1;spacingTop=10;tabWidth=40;tabHeight=14;tabPosition=left;html=1;whiteSpace=wrap;" vertex="1" parent="1">
          <mxGeometry x="448" y="64" width="96" height="81" as="geometry" />
        </mxCell>
      </root>
    </mxGraphModel>
  </diagram>
</mxfile>
